<svg version="1.1" viewBox="0 0 1744 1744" width="109" height="109" fill="#808080" xmlns="http://www.w3.org/2000/svg">
<path transform="translate(957,5)" d="m0 0h33l29 2 21 3 31 8 33 12 20 9 22 12 42 28 14 11 13 11 14 11 11 9 10 9 2 1v2l4 2 9 9 8 7 10 9 8 7 14 12 7 7 8 7 9 9 8 7 17 17 2 1v2l4 2 132 132v2l4 2 7 8 16 16 7 8 24 24 7 8 14 15 7 8 10 11 7 8 11 12 10 11 18 22 20 26 10 14 10 15 15 25 10 18 8 17 13 35 5 18 6 31 3 26v34l-4 33-6 31-8 27-7 19-11 24-11 21-15 24-10 15-12 17-9 12-14 19-12 13-7 8-11 13-9 11-11 12-9 11-12 12-4 5-8 7-8 9-8 7-8 9-8 7-5 6h-2v2l-8 7-6 7h-2v2l-8 7-6 7h-2v2l-8 7-5 6-8 7-7 7-4 5-8 7-20 20-4 5-8 7-5 6-8 7-7 7-4 5-8 7-164 164-4 5-8 7-10 11h-2l-2 4-63 63-3 1-2 4-13 12-10 10-11 9-13 11-8 7-10 10h59l67 1 346 1 12 2 14 7 10 8 10 13 6 13 2 6 1 7v13l-4 12-8 16-7 11-9 10-6 3-19 4-26 1h-1266l-18-2-11-4-13-9-9-11-9-16-4-16v-12l3-11 9-19 9-11 7-6 16-9 7-1 266-1-7-8-8-8-9-7-13-12-8-7-17-17-8-7-18-18-8-7-150-150-7-8-19-19-7-8-14-14-7-8-9-9-7-8-12-13-12-14-11-12-7-8-11-13-9-11-14-18-13-18-12-18-12-20-12-23-12-25-10-27-10-40-3-18-1-8v-49l3-25 7-32 8-27 11-28 12-25 9-17 14-23 8-11 12-16 14-19 10-13 18-22 13-15 12-13 10-10 5-6 18-18 7-8 8-8 7-8 11-11 9-11 10-10 7-8 19-19 7-8 4-4h2l2-4 251-251 6-5 6-7 8-7 21-21 8-7 10-9 15-14 10-10 8-7 13-13 8-7 13-13 8-7 9-9 11-9 11-10 11-9 14-12 14-11 19-14 19-13 17-11 25-15 17-8 10-5 24-9 19-6 26-6 19-3zm-6 128-24 4-21 6-15 6-23 12-30 20-11 8-16 12-18 14-10 9-8 7-9 8-8 7-14 12-13 12-8 7-10 10-8 7-14 14-2 1v2l-4 2-4 5-8 7-6 6v2h-2v2l-4 2-12 12v2l-4 2-24 24-5 6-8 7-8 9-8 7-8 9-4 3v2l-4 2-8 9-7 6v2l-4 2-6 7-6 5-7 8-5 4-6 7-5 5-5 4-6 7-5 5-5 4-6 7-5 5-5 4-6 7-5 5-5 4-6 7-5 5-5 4-6 7-5 5-5 4-5 6-5 5-6 5-4 4v2l-4 2-6 7-6 5v2l-4 2-6 7-6 5v2l-4 2-6 7-6 5v2l-4 2-6 7-6 5-7 8-45 45-7 8-17 17-9 11-7 7-9 11-9 10-7 8-4 5-5 5-10 11-13 17-8 10-7 9-13 19-14 23-12 23-8 20-6 24-2 12-1 12v42l4 21 8 24 12 25 5 10 10 15 9 13 4-1 9-7 24-24 7-8 5-4 7-8 813-813v-2l3-1 5-6 6-5 7-8 13-12 12-11 7-7 9-7-6-7-12-9-20-12-16-8-19-8-17-5-15-3-9-1zm257 135-8 7-11 12-138 138v2h-2v2l-4 2-9 9-5 6-8 7-8 9-8 7-8 9-8 7-8 9-8 7-8 9-8 7-8 9-8 7-8 9-8 7-8 9-8 7-8 9-8 7-8 9-8 7-8 9-8 7-8 9-8 7-8 9-8 7-8 9-8 7-8 9-8 7-8 9-8 7-8 9-8 7-8 9-8 7-8 9-8 7-8 9-8 7-8 9-8 7-8 9-8 7-8 9-8 7-8 9-8 7-8 9-8 7-8 9-8 7-8 9-8 7-8 9-8 7-8 9-8 7-8 9-8 7-8 9-8 7-8 9-8 7-9 10-8 7-7 8-8 7-8 9-8 7-8 9-8 7-8 9-8 7-8 9-8 7-8 9-8 7-8 9-8 7-8 9-8 7-9 10-8 7-9 10-2 1v2l-4 2-7 8-35 35-2 1v2l-4 2-9 10-8 7-7 7-11 9-1 3 7 8 12 13 252 252 8 7 15 13 42 36 19 14 12 9 32 19 16 8 14 6 20 6 20 4 11 1h33l21-3 22-6 20-7 16-8 16-9 37-25 18-14 13-11 9-7 17-14 10-9 15-14 17-16 10-10 8-7 9-9 8-7 33-31 1-3h2l14-14v-2h2l126-126v-2h2l14-14v-2h2l80-80v-2l4-2 81-81 15-16v-2l3-1 7-8 6-7 5-5 6-7 8-7 12-13 15-16 8-8 7-8 9-10 8-10 11-14 14-17 21-28 8-14 14-27 9-21 6-18 4-22 2-25v-21l-3-20-6-24-8-19-10-21-15-24-16-23-14-17-9-11-9-10-9-11-9-10-9-11-7-7-7-8-27-27-7-8-5-4-7-8-11-11h-2l-2-4-8-8-6-5-2-3h-2l-2-4-13-12-6-7-8-7-149-149-6-4z" />
<path transform="translate(1388,729)" d="m0 0h18l16 4 14 7 10 10 8 13 6 14 2 8v17l-5 15-9 14-10 11-7 8-55 55-1 2h-2l-2 4-7 6-1 2h-2l-2 4-8 8h-2l-2 4-10 10h-2v2l-4 4h-2l-2 4-15 14-46 46-11 8-16 8-12 4-17-1-15-6-13-7-7-6-9-13-7-16-3-10v-8l3-12 4-12 8-13 9-10 7-7 5-6 8-7 50-50 7-8 93-93 14-11 14-7z" />
<path transform="translate(1055,1058)" d="m0 0h27l11 2 14 7 9 8 9 13 7 15 2 9v18l-3 12-8 13-13 16-12 13-15 15-8 7-9 10-8 7-9 10-8 7-9 8-16 9-9 3-7 1h-9l-15-3-17-8-11-9-8-11-5-11-4-13-1-13 2-16 6-11 9-11 9-10 12-13 9-8 7-8 9-8 7-8 19-19 8-7 10-8 14-7z" />
</svg>
